<svg xmlns="http://www.w3.org/2000/svg" viewBox="0 0 2500 1262.3"><defs><style>.cls-1{fill:transparent;}.cls-1,.cls-2,.cls-3,.cls-4{fill-rule:evenodd;}.cls-2,.cls-4{fill:#fadf3c;}.cls-2,.cls-5{stroke:#fadf3c;stroke-linecap:round;stroke-linejoin:round;}.cls-2{stroke-width:19.18px;}.cls-3{fill:#2b2b7b;}.cls-5{fill:none;stroke-width:21.02px;}</style></defs><g id="Layer_2" data-name="Layer 2"><g id="Layer_1-2" data-name="Layer 1"><path class="cls-1" d="M0,0H2500V1262.3H0Z"/><path class="cls-2" d="M110.49,1210.83l91.19-99.2H471.89v-94.16s466.59-80.75,767.75-81.53c308.72-.81,787.24,81.53,787.24,81.53v94.16h270.66l91.17,99.2-421.75,0-.16-67.65c-138.69-21.62-487.83-71.9-731.66-71-233.63.87-567.4,49.49-702.77,70.83l-.18,67.8-421.7,0Z"/><path class="cls-3" d="M110.29,1210.65l91.2-99.21H471.71v-94.16s466.55-80.75,767.71-81.54c308.69-.8,787.24,81.54,787.24,81.54v94.16h270.61l91.19,99.21-421.72,0-.19-67.64c-138.66-21.62-487.83-71.91-731.63-71-233.62.87-567.38,49.49-702.76,70.83l-.15,67.8-421.71,0Z"/><path class="cls-4" d="M472.89,1152.26l53.23,53.4-.12-61.05ZM2066.71,897l.48-287.41,160.9-.34-41,38.86c-1.24,96.9-.23,240.63-.23,240.63L2268,921.53V720.46s.32-121.18-7.42-136.16c-6.67-12.92-24.37-24.26-24.37-24.26s-94.33-52.14-106.95-57.49c-40.07-17-64.9-40.58-64.9-77.85V139.23c1.52-48.23,42.89-77.79,107-77.79h113.48c70.62,0,103.94,38.12,103.94,96.45l.69,177-161.46.46,42.58-38.59V144.21l-82.56-.66V416l96.82,51.86c82.21,38.46,103.94,117.92,103.94,176.26v400.28c0,57.07-21.66,67.16-100,22.52-242.25-113.77-587.6-195.44-974.61-223.85-306.56-22.49-608.3-2.5-841.9,43.94l15.81-4.68C712.73,825.9,986.26,794.23,1281,797.21c292.47,3,563.29,39.7,785.69,99.82ZM634.48,167.13c33.54,0,59.16,6.26,77.51,18.79,16.46,12,24,27.34,24,47.85v533.3l20.72,29s-38.54,5.37-63.08,9.31-63.14,10.93-63.14,10.93l14.6-34.52-1.49-269.13H587.27l11.32-62.47,45,.14V250H576.52V795.72l20,27.26s-38.82,8-63.5,13.65q-32.27,7.54-64.39,15.64l15.53-35.84.65-624-22.89-25.48ZM886.63,748l17,30.63s-36.14,3.58-59.22,6.22-58.72,7.25-58.72,7.25l15.68-33.34,1.41-565.84L785,166.26l101,.29v37.93l91.18,307.59V166.47l100.24-.22-16.56,20.87.32,547.06,15.2,32.26s-33,1.81-54,3.11c-22.06,1.35-56.54,3.7-56.54,3.7l11.38-32.46v-69.6L886,349.19,886.63,748Zm242.79-558.87-16-22.25,130,.77L1226,188l.74,542.82,17.63,31.84s-39.83-.14-65.29.29c-25.25.39-64.7,1.82-64.7,1.82l16.64-32.55-1.63-543.11ZM1404.69,336.4l29.48-31.73V223H1367.7v98c0,15.38,7.6,31.88,18.37,43.84,119,131.56,119,132.69,119,132.69,12.06,14.24,23,46.43,23,64.66V712.44c0,41.58-36.7,58.67-101.9,53.55l-46.84-2.23c-34.2-1.71-59.5-8.59-77.23-20.55-16.47-10.83-26.71-27-26.71-45.24V559.58l120.88-.71-26.44,33V706.18L1436.3,709V570.64c0-17.63-6.57-40.28-21.13-56.23L1296.79,386.27c-12.67-13.1-21.52-35.18-21.52-52.83V226.93c0-38.15,36.73-59.22,101.9-59.22H1424c33.56,0,60.14,5.14,77.87,17.08,16.47,10.82,24,25.07,24,43.85V336l-121.25.42Zm174.12-145.65L1560.31,168h133l-20.19,23.77V755.22l18.16,34.67s-42.45-4.3-69.59-7.4c-25.17-2.86-64.55-7.83-64.55-7.83l21.64-29.09V190.75Zm438.73-24.15-15.6,24.15L2001.81,812l20.67,41.24S1871.12,820,1843.26,812c-27.21-7.39-50.79-24.61-67.23-39.44-19-18.21-26.15-48.74-26.15-73.8V191.1l-16.29-24,108.67-.13,0,565.91,67.11,17.66.13-584.08,108,.11ZM226.21,964.5l85.28-48.63.26-308.62,115.73.68-.1,332.56c-32.13,15.21-210.25,118.27-210.25,118.27-68.35,45.2-102.85,41.28-102.85-18.82v-886c0-58.62,41.11-95.43,103-95.43h110c68.36,0,100.06,30.81,100.06,76.66V337.53l-143.1-.5L313,286.75V142.3l-85.42-.75-1.34,823Z"/><path class="cls-5" d="M2067,897.22l.48-287.41,160.91-.32-41,38.84c-1.25,96.89-.23,240.63-.23,240.63l81.19,32.75V720.64s.32-121.16-7.4-136.13c-6.66-12.92-24.39-24.28-24.39-24.28s-94.33-52.11-106.95-57.48c-40.08-17-64.9-40.57-64.9-77.85V139.44c1.52-48.22,42.89-77.78,107-77.78h113.49c70.64,0,104,38.1,104,96.47l.67,176.93-161.47.47,42.58-38.59V144.41l-82.55-.67V416.2l96.82,51.85c82.23,38.47,104,117.92,104,176.26v400.28c0,57.09-21.69,67.15-100,22.52-242.25-113.77-587.6-195.44-974.63-223.85-306.57-22.48-608.31-2.51-841.92,43.94l15.8-4.67c224.62-56.43,498.18-88.09,793-85.11,292.47,3,563.31,39.68,785.69,99.8ZM634.68,167.34c33.55,0,59.16,6.26,77.53,18.79,16.44,12,24,27.34,24,47.83V767.25l20.7,29s-38.52,5.38-63.07,9.32-63.17,10.92-63.17,10.92L645.32,782l-1.49-269.14H587.45l11.34-62.45,45,.13V250.19H576.71v545.7l19.95,27.28s-38.8,8-63.5,13.61c-25.2,5.78-64.39,15.68-64.39,15.68l15.51-35.84.66-624L462.05,167.1l172.63.24ZM886.83,748.2l17,30.65s-36.16,3.56-59.22,6.21-58.73,7.25-58.73,7.25L801.57,759,803,193.13l-17.73-26.68,101,.29v37.94l91.18,307.59V166.66l100.24-.22-16.56,20.87.32,547,15.2,32.25s-33,1.83-54.06,3.12c-22,1.36-56.53,3.71-56.53,3.71L977.38,741V671.35l-91.18-322,.63,398.85Zm242.81-558.85-16-22.23,130,.76-17.38,20.38.74,542.81,17.64,31.84s-39.83-.14-65.32.27c-25.22.4-64.69,1.84-64.69,1.84l16.65-32.55-1.63-543.12Zm275.27,147.24,29.48-31.72V223.13h-66.47v98c0,15.39,7.6,31.9,18.37,43.87,119,131.54,119,132.68,119,132.68,12,14.24,23,46.43,23,64.65V712.64c0,41.57-36.73,58.65-101.93,53.52L1379.56,764c-34.21-1.72-59.51-8.6-77.21-20.57-16.49-10.81-26.73-27-26.73-45.23V559.76l120.9-.68L1370.05,592V706.37l66.47,2.86V570.84c0-17.65-6.56-40.28-21.13-56.24L1297,386.47c-12.68-13.1-21.53-35.17-21.53-52.82V227.14c0-38.16,36.73-59.22,101.92-59.22h46.84c33.56,0,60.14,5.14,77.87,17.07,16.47,10.83,24.06,25.07,24.06,43.86V336.19l-121.27.4Zm174.16-145.65-18.5-22.73h133L1673.37,192V755.42l18.19,34.67s-42.45-4.29-69.59-7.38c-25.2-2.89-64.55-7.84-64.55-7.84l21.64-29.08V190.94Zm438.71-24.14-15.6,24.14-.1,621.21,20.62,41.25s-151.33-33.26-179.19-41.25c-27.21-7.39-50.79-24.61-67.26-39.42-19-18.23-26.15-48.74-26.15-73.8V191.28l-16.26-23.94,108.64-.13.06,565.91,67.1,17.64.13-584.06,108,.1ZM226.41,964.68l85.29-48.62L312,607.43l115.73.7-.12,332.54C395.45,955.9,217.32,1059,217.32,1059c-68.36,45.18-102.86,41.28-102.86-18.84v-886c0-58.61,41.11-95.42,103-95.42h110c68.36,0,100.06,30.81,100.06,76.64V337.71l-143.09-.48L313.18,287V142.5l-85.42-.75-1.35,822.93Z"/><path class="cls-3" d="M2066.71,897l.48-287.41,160.9-.34-41,38.86c-1.24,96.9-.23,240.63-.23,240.63L2268,921.53V720.46s.32-121.18-7.42-136.16c-6.67-12.92-24.37-24.26-24.37-24.26s-94.33-52.14-106.95-57.49c-40.07-17-64.9-40.58-64.9-77.85V139.23c1.52-48.23,42.89-77.79,107-77.79h113.48c70.62,0,103.94,38.12,103.94,96.45l.69,177-161.46.46,42.58-38.59V144.21l-82.56-.66V416l96.82,51.86c82.21,38.46,103.94,117.92,103.94,176.26v400.28c0,57.07-21.66,67.16-100,22.52-242.25-113.77-587.6-195.44-974.61-223.85-306.56-22.49-608.3-2.5-841.9,43.94l15.81-4.68C712.73,825.9,986.26,794.23,1281,797.21c292.47,3,563.29,39.7,785.69,99.82ZM634.48,167.13c33.54,0,59.16,6.26,77.51,18.79,16.46,12,24,27.34,24,47.85v533.3l20.72,29s-38.54,5.37-63.08,9.31-63.14,10.93-63.14,10.93l14.6-34.52-1.49-269.13H587.27l11.32-62.47,45,.14V250H576.52V795.72l20,27.26s-38.82,8-63.5,13.65q-32.27,7.54-64.39,15.64l15.53-35.84.65-624-22.89-25.48ZM886.63,748l17,30.63s-36.14,3.58-59.22,6.22-58.72,7.25-58.72,7.25l15.68-33.34,1.41-565.84L785,166.26l101,.29v37.93l91.18,307.59V166.47l100.24-.22-16.56,20.87.32,547.06,15.2,32.26s-33,1.81-54,3.11c-22.06,1.35-56.54,3.7-56.54,3.7l11.38-32.46v-69.6L886,349.19,886.63,748Zm242.79-558.87-16-22.25,130,.77L1226,188l.74,542.82,17.63,31.84s-39.83-.14-65.29.29c-25.25.39-64.7,1.82-64.7,1.82l16.64-32.55-1.63-543.11ZM1404.69,336.4l29.48-31.73V223H1367.7v98c0,15.38,7.6,31.88,18.37,43.84,119,131.56,119,132.69,119,132.69,12.06,14.24,23,46.43,23,64.66V712.44c0,41.58-36.7,58.67-101.9,53.55l-46.84-2.23c-34.2-1.71-59.5-8.59-77.23-20.55-16.47-10.83-26.71-27-26.71-45.24V559.58l120.88-.71-26.44,33V706.18L1436.3,709V570.64c0-17.63-6.57-40.28-21.13-56.23L1296.79,386.27c-12.67-13.1-21.52-35.18-21.52-52.83V226.93c0-38.15,36.73-59.22,101.9-59.22H1424c33.56,0,60.14,5.14,77.87,17.08,16.47,10.82,24,25.07,24,43.85V336l-121.25.42Zm174.12-145.65L1560.31,168h133l-20.19,23.77V755.22l18.16,34.67s-42.45-4.3-69.59-7.4c-25.17-2.86-64.55-7.83-64.55-7.83l21.64-29.09V190.75Zm438.73-24.15-15.6,24.15L2001.81,812l20.67,41.24S1871.12,820,1843.26,812c-27.21-7.39-50.79-24.61-67.23-39.44-19-18.21-26.15-48.74-26.15-73.8V191.1l-16.29-24,108.67-.13,0,565.91,67.11,17.66.13-584.08,108,.11ZM226.21,964.5l85.28-48.63.26-308.62,115.73.68-.1,332.56c-32.13,15.21-210.25,118.27-210.25,118.27-68.35,45.2-102.85,41.28-102.85-18.82v-886c0-58.62,41.11-95.43,103-95.43h110c68.36,0,100.06,30.81,100.06,76.66V337.53l-143.1-.5L313,286.75V142.3l-85.42-.75-1.34,823Z"/><path class="cls-4" d="M2026.8,1152.26l-53.17,53.4.11-61.05ZM618.15,1089.2v-21.75l-30.62,4.72v22.62l-15.76,2.44V1035.9l15.76-2.44v14.47l30.62-4.75v-13.29c0-7.47-4.38-10.27-38.21-5-33,5.1-38.79,9.05-38.79,16.92v59.3c0,7.78,6.71,9.7,38.79,4.74C611.15,1101,618.15,1097.15,618.15,1089.2ZM856,998.78c0-8.45-7.57-9.85-38.19-6.19-31.52,3.79-38.81,7-38.81,15.58v59.14c0,8.52,7.29,10,38.81,6.25,30.62-3.66,38.19-6.86,38.19-15.3V998.78Zm-46.37,4.6,15.74-1.91v61.34l-15.74,1.88v-61.31Zm238.86-32.88-30.63,2.12v79.71L1066,1049v-9.19l-17.5,1.19V970.5ZM1260,962.28l-30.62-1V1041l48.13,1.65v-9.19l-17.51-.6Zm181.1,7.72v79.72l53.68,3.66v-9.18l-23-1.59v-26.35l23,1.58v-9.21l-23-1.57V981.29l21.88,1.48v-9.19L1441.14,970ZM1733,1023.29v-13.52c0-8.5-7.88-11.72-39.37-14.94s-37.61-1.36-37.61,7.06v59.3c0,7.86,6.11,11.37,37.61,14.6s39.37,1.45,39.37-6.7l-.24-31.3-37.13-4.19v10.47l8.16.83.23,21.72-20.73-2.33V1003l20.73,2.35V1020l29,3.32Zm161.37-1V1102l53.66,7.37v-9.2l-23-3.18v-26.35l23,3.16v-9.19l-23-3.17v-25.77l21.88,3v-9.2Z"/></g></g></svg>